<svg width="173" height="186" viewBox="0 0 173 186" fill="none" xmlns="http://www.w3.org/2000/svg">
<path d="M6.58479 86.1791C5.75681 72.1509 7.68889 72.4816 3.8247 62.909C-5.69779 39.6156 4.65274 13.9291 26.1818 7.54735C68.412 -4.73751 110.09 -2.02527 150.802 15.6841C171.365 24.6185 178.542 50.9432 168.053 73.2793C165.017 79.8206 162.809 87.4787 162.257 94.8177C161.015 113.803 164.858 127.749 159.729 149.805C158.789 153.849 154.484 155.865 151.861 158.895C151.861 158.895 140.429 166.453 148.594 160.231C141.004 168.527 129.687 171.399 117.266 169.325C112.988 168.686 110.504 169.963 110.918 175.547C111.332 180.971 109.952 185.758 104.708 185.758C98.9115 185.758 97.8075 180.812 98.0835 175.068C98.2215 173.313 98.0835 171.399 98.0835 168.208C87.4569 167.57 76.9684 166.772 66.4799 166.453C65.5139 166.453 63.8578 170.122 63.7198 172.356C63.3058 178.1 64.5478 185.598 57.3714 185.758C49.505 185.917 50.8851 178.1 50.7471 172.037C50.7471 169.963 50.4711 167.889 50.1951 165.336C45.0888 164.857 40.2586 164.538 35.5663 163.9C19.6955 161.986 5.6188 146.191 5.75681 128.003C5.80886 121.142 5.75681 117.324 6.58479 108.801C6.58479 102.422 6.58479 108.481 6.58479 102.422C6.58479 90.8022 6.58479 94.5585 6.58479 86.1791ZM79.3145 151.934C84.8348 152.253 95.5994 153.211 106.364 153.849C119.337 154.647 128.997 144.914 129.963 129.917C130.515 121.142 130.929 112.368 131.343 103.593C132.033 89.2337 132.999 75.513 140.038 62.5899C147.076 49.6669 141.004 34.0316 128.307 28.1285C96.5654 13.61 64.1338 11.2169 31.0121 21.4276C15.2793 26.214 9.897 41.0515 15.8313 58.4418C18.5914 66.5785 19.5575 75.8321 19.8335 84.607C20.1095 96.7323 18.7295 109.017 18.1774 121.142C17.4874 137.735 26.0438 148.424 40.2586 149.222C51.5751 150.179 62.8917 150.977 79.3145 151.934Z" fill="white"/>
<path d="M96.7856 116.482C96.7856 107.393 96.7024 102.959 102.499 102.959C107.053 103.119 108.709 106.788 108.709 111.574C108.571 116.839 107.881 122.583 102.085 121.945C99.3246 121.785 96.7856 119.512 96.7856 116.482Z" fill="white"/>
<path d="M41.5001 108.854C41.5001 102.951 43.5702 99.1222 48.8145 99.6008C53.9208 100.079 54.4728 104.547 54.3348 109.493C54.1968 114.917 52.8167 119.384 47.4344 118.906C42.1902 118.587 41.0861 113.8 41.5001 108.854Z" fill="white"/>
<path d="M74.6224 127.844C72.2763 126.887 69.3781 126.249 66.894 124.494C65.652 123.537 65.3759 120.824 64.6859 118.91C66.48 118.431 68.1361 117.793 69.9302 117.793C72.6903 117.793 75.5885 118.272 78.3486 118.75C80.2807 119.069 82.2128 119.707 84.1449 120.027C82.9028 122.101 81.9368 124.653 80.2807 126.089C79.1767 127.206 77.1066 127.046 74.6224 127.844Z" fill="white"/>
</svg>
